<?xml version="1.0" encoding="utf-8"?>
<!-- Generator: Adobe Illustrator 23.0.4, SVG Export Plug-In . SVG Version: 6.00 Build 0)  -->
<svg version="1.1" id="Layer_1__x28_1:1_x29_" xmlns="http://www.w3.org/2000/svg" xmlns:xlink="http://www.w3.org/1999/xlink"
	 x="0px" y="0px" viewBox="82 57 70 70" style="enable-background:new 0 0 246 186;" xml:space="preserve">
<style type="text/css">
	.st0{fill:#FEDA09;}
</style>
<path class="st0" d="M109.9,80.8h5.5V67.3h-4.6l-1.3,0c-13,0-23.6,11.2-23.6,25s10.6,25,23.6,25h5.9v-13.5l-5.9,0
	c-3,0-5.9-1.3-8-3.7c-2.2-2.5-3.3-5.9-2.9-9.3C99.2,85.1,104.1,80.8,109.9,80.8z"/>
<path class="st0" d="M126.6,67.3h-5.9v13.5l5.9,0c3,0,5.9,1.3,8,3.7c2.2,2.5,3.3,5.9,2.9,9.3c-0.7,5.8-5.5,10.1-11.3,10.1h-5.5v13.5
	l5.9,0c13,0,23.6-11.2,23.6-25C150.2,78.5,139.6,67.3,126.6,67.3z"/>
</svg>
